<?xml version="1.0" encoding="UTF-8" standalone="no"?>
<!DOCTYPE svg PUBLIC "-//W3C//DTD SVG 20010904//EN"
              "http://www.w3.org/TR/2001/REC-SVG-20010904/DTD/svg10.dtd">

<svg xmlns="http://www.w3.org/2000/svg"
     width="8.88889in" height="5.55556in"
     >
  <path id="fc"
        fill="#3F516E" stroke="#FFF" stroke-width="1"
        d="M 107.02,114.00
           C 107.69,111.85 109.06,106.28 110.72,104.99
             112.34,103.74 116.00,104.00 118.00,104.00
             118.00,104.00 287.00,104.00 287.00,104.00
             287.00,104.00 343.00,104.00 343.00,104.00
             343.00,104.00 364.00,103.32 364.00,103.32
             376.60,104.29 385.27,107.65 393.10,118.00
             396.20,122.09 398.40,125.93 399.48,131.00
             400.15,134.14 400.03,138.71 400.00,142.00
             399.88,151.64 396.00,159.94 393.28,169.00
             392.60,171.26 390.98,177.69 389.28,179.01
             387.77,180.17 384.83,179.99 383.00,180.00
             383.00,180.00 350.00,180.00 350.00,180.00
             350.00,180.00 360.00,140.00 360.00,140.00
             360.00,140.00 100.00,140.00 100.00,140.00
             100.00,140.00 107.02,114.00 107.02,114.00 Z
           M 240.00,160.00
           C 240.00,160.00 231.00,200.00 231.00,200.00
             231.00,200.00 152.00,200.00 152.00,200.00
             152.00,200.00 141.00,251.00 141.00,251.00
             141.00,251.00 96.00,251.00 96.00,251.00
             96.00,251.00 102.58,224.00 102.58,224.00
             102.58,224.00 119.00,160.00 119.00,160.00
             119.00,160.00 240.00,160.00 240.00,160.00 Z
           M 296.00,160.00
           C 296.00,160.00 291.63,178.00 291.63,178.00
             291.63,178.00 284.00,210.00 284.00,210.00
             284.00,210.00 379.00,210.00 379.00,210.00
             379.00,210.00 370.00,251.00 370.00,251.00
             370.00,251.00 276.00,251.00 276.00,251.00
             264.19,250.86 249.75,249.53 243.27,238.00
             237.41,227.07 240.32,216.21 243.27,205.00
             243.27,205.00 254.00,160.00 254.00,160.00
             254.00,160.00 296.00,160.00 296.00,160.00 Z" />
  <path id="F 1 L 3 C H 4 1 N"
        fill="#3F516E" stroke="#3F516E" stroke-width="1"
        d="M 156.00,272.00
           C 156.00,272.00 157.78,272.00 157.78,272.00
             157.78,272.00 157.78,266.00 157.78,266.00
             157.78,266.00 162.78,266.00 162.78,266.00
             162.78,266.00 162.78,264.50 162.78,264.50
             162.78,264.50 157.78,264.50 157.78,264.50
             157.78,264.50 157.78,260.50 157.78,260.50
             157.78,260.50 162.78,260.50 162.78,260.50
             162.78,260.50 162.78,259.00 162.78,259.00
             162.78,259.00 156.00,259.00 156.00,259.00
             156.00,259.00 156.00,272.00 156.00,272.00 Z
           M 173.00,272.00
           C 173.00,272.00 178.78,272.00 178.78,272.00
             178.78,272.00 178.78,270.50 178.78,270.50
             178.78,270.50 176.78,270.50 176.78,270.50
             176.78,270.50 176.78,259.00 176.78,259.00
             176.78,259.00 175.11,259.00 175.11,259.00
             175.11,259.00 172.00,259.52 172.00,259.52
             172.00,259.52 172.00,261.12 172.00,261.12
             172.00,261.12 175.00,260.62 175.00,260.62
             175.00,260.62 175.00,270.50 175.00,270.50
             175.00,270.50 173.00,270.50 173.00,270.50
             173.00,270.50 173.00,272.00 173.00,272.00 Z
           M 189.00,272.00
           C 189.00,272.00 196.78,272.00 196.78,272.00
             196.78,272.00 196.78,270.50 196.78,270.50
             196.78,270.50 190.78,270.50 190.78,270.50
             190.78,270.50 190.78,259.00 190.78,259.00
             190.78,259.00 189.00,259.00 189.00,259.00
             189.00,259.00 189.00,272.00 189.00,272.00 Z
           M 212.20,260.52
           C 211.82,260.00 211.30,259.62 210.64,259.38
             209.98,259.12 209.23,259.00 208.39,259.00
             207.35,259.00 206.16,259.19 204.83,259.56
             204.83,259.56 204.83,261.14 204.83,261.14
             206.11,260.71 207.24,260.50 208.23,260.50
             209.08,260.50 209.75,260.67 210.25,261.02
             210.75,261.35 211.00,261.86 211.00,262.55
             211.00,263.23 210.77,263.74 210.33,264.06
             209.88,264.39 209.27,264.55 208.48,264.55
             208.48,264.55 207.00,264.55 207.00,264.55
             207.00,264.55 207.00,266.00 207.00,266.00
             207.00,266.00 208.33,266.00 208.33,266.00
             209.14,266.00 209.79,266.19 210.27,266.56
             210.75,266.94 211.00,267.48 211.00,268.20
             211.00,269.00 210.69,269.58 210.08,269.95
             209.46,270.32 208.63,270.50 207.58,270.50
             206.27,270.50 205.12,270.24 204.12,269.72
             204.12,269.72 204.12,271.34 204.12,271.34
             205.34,271.78 206.51,272.00 207.62,272.00
             208.39,272.00 209.09,271.93 209.70,271.78
             210.33,271.62 210.87,271.40 211.33,271.09
             211.80,270.78 212.16,270.38 212.41,269.89
             212.66,269.40 212.78,268.84 212.78,268.20
             212.78,267.40 212.59,266.75 212.20,266.23
             211.82,265.71 211.21,265.38 210.38,265.22
             211.11,265.03 211.70,264.70 212.12,264.23
             212.56,263.76 212.78,263.14 212.78,262.38
             212.78,261.65 212.59,261.03 212.20,260.52 Z
           M 222.64,260.77
           C 221.55,261.93 221.00,263.51 221.00,265.50
             221.00,267.49 221.55,269.07 222.66,270.25
             223.76,271.42 225.31,272.00 227.31,272.00
             228.84,272.00 230.23,271.58 231.48,270.73
             231.48,270.73 231.48,268.98 231.48,268.98
             230.30,270.03 228.94,270.55 227.42,270.55
             225.88,270.55 224.72,270.11 223.94,269.23
             223.16,268.35 222.78,267.11 222.78,265.50
             222.78,263.90 223.16,262.66 223.94,261.78
             224.72,260.90 225.88,260.45 227.42,260.45
             228.94,260.45 230.30,260.98 231.48,262.02
             231.48,262.02 231.48,260.25 231.48,260.25
             230.27,259.42 228.88,259.00 227.31,259.00
             225.30,259.00 223.74,259.59 222.64,260.77 Z
           M 241.00,272.00
           C 241.00,272.00 242.78,272.00 242.78,272.00
             242.78,272.00 242.78,266.00 242.78,266.00
             242.78,266.00 249.00,266.00 249.00,266.00
             249.00,266.00 249.00,272.00 249.00,272.00
             249.00,272.00 250.78,272.00 250.78,272.00
             250.78,272.00 250.78,259.00 250.78,259.00
             250.78,259.00 249.00,259.00 249.00,259.00
             249.00,259.00 249.00,264.50 249.00,264.50
             249.00,264.50 242.78,264.50 242.78,264.50
             242.78,264.50 242.78,259.00 242.78,259.00
             242.78,259.00 241.00,259.00 241.00,259.00
             241.00,259.00 241.00,272.00 241.00,272.00 Z
           M 266.00,267.00
           C 266.00,267.00 262.72,267.00 262.72,267.00
             262.72,267.00 266.00,261.81 266.00,261.81
             266.00,261.81 266.00,267.00 266.00,267.00 Z
           M 261.00,267.19
           C 261.00,267.19 261.00,268.45 261.00,268.45
             261.00,268.45 266.00,268.45 266.00,268.45
             266.00,268.45 266.00,272.00 266.00,272.00
             266.00,272.00 267.78,272.00 267.78,272.00
             267.78,272.00 267.78,268.45 267.78,268.45
             267.78,268.45 268.78,268.45 268.78,268.45
             268.78,268.45 268.78,267.00 268.78,267.00
             268.78,267.00 267.78,267.00 267.78,267.00
             267.78,267.00 267.78,259.00 267.78,259.00
             267.78,259.00 266.38,259.00 266.38,259.00
             266.38,259.00 261.00,267.19 261.00,267.19 Z
           M 279.00,272.00
           C 279.00,272.00 284.78,272.00 284.78,272.00
             284.78,272.00 284.78,270.50 284.78,270.50
             284.78,270.50 282.78,270.50 282.78,270.50
             282.78,270.50 282.78,259.00 282.78,259.00
             282.78,259.00 281.11,259.00 281.11,259.00
             281.11,259.00 278.00,259.52 278.00,259.52
             278.00,259.52 278.00,261.12 278.00,261.12
             278.00,261.12 281.00,260.62 281.00,260.62
             281.00,260.62 281.00,270.50 281.00,270.50
             281.00,270.50 279.00,270.50 279.00,270.50
             279.00,270.50 279.00,272.00 279.00,272.00 Z
           M 295.00,272.00
           C 295.00,272.00 296.78,272.00 296.78,272.00
             296.78,272.00 296.78,261.55 296.78,261.55
             296.78,261.55 302.31,272.00 302.31,272.00
             302.31,272.00 304.78,272.00 304.78,272.00
             304.78,272.00 304.78,259.00 304.78,259.00
             304.78,259.00 303.00,259.00 303.00,259.00
             303.00,259.00 303.00,269.92 303.00,269.92
             303.00,269.92 297.20,259.00 297.20,259.00
             297.20,259.00 295.00,259.00 295.00,259.00
             295.00,259.00 295.00,272.00 295.00,272.00 Z" />
  <path id="stroke"
        fill="none" stroke="black" stroke-width="1"
        d="M 150.73,265.00
           C 150.73,265.00 126.00,265.00 126.00,265.00
             126.00,265.00 106.50,265.00 106.50,265.00
             106.50,265.00 90.23,262.18 86.05,256.18
             80.41,251.00 82.17,235.33 82.17,235.33
             82.17,235.33 104.17,153.50 104.17,153.50M 109.00,85.45
           C 109.00,85.45 368.50,86.55 368.50,86.55
             368.50,86.55 395.24,86.36 409.00,101.45
             413.37,106.25 421.05,119.82 417.50,140.00
             414.79,155.42 409.23,173.58 404.00,191.00
             394.52,222.59 388.68,250.00 388.68,250.00
             388.68,250.00 386.08,259.04 379.00,262.50
             370.80,266.50 357.95,265.00 357.95,265.00
             357.95,265.00 310.55,265.00 310.55,265.00" />
</svg>
