<?xml version="1.0" encoding="UTF-8" standalone="no"?>
<!DOCTYPE svg PUBLIC "-//W3C//DTD SVG 20010904//EN"
              "http://www.w3.org/TR/2001/REC-SVG-20010904/DTD/svg10.dtd">

<svg xmlns="http://www.w3.org/2000/svg"
     width="120" height="120"
     viewBox="30 0 640 400"
     >
  <path id="fc"
        fill="#3F516E" stroke="#FFF" stroke-width="1"
        d="M 107.02,114.00
           C 107.69,111.85 109.06,106.28 110.72,104.99
             112.34,103.74 116.00,104.00 118.00,104.00
             118.00,104.00 287.00,104.00 287.00,104.00
             287.00,104.00 343.00,104.00 343.00,104.00
             343.00,104.00 364.00,103.32 364.00,103.32
             376.60,104.29 385.27,107.65 393.10,118.00
             396.20,122.09 398.40,125.93 399.48,131.00
             400.15,134.14 400.03,138.71 400.00,142.00
             399.88,151.64 396.00,159.94 393.28,169.00
             392.60,171.26 390.98,177.69 389.28,179.01
             387.77,180.17 384.83,179.99 383.00,180.00
             383.00,180.00 350.00,180.00 350.00,180.00
             350.00,180.00 360.00,140.00 360.00,140.00
             360.00,140.00 100.00,140.00 100.00,140.00
             100.00,140.00 107.02,114.00 107.02,114.00 Z
           M 240.00,160.00
           C 240.00,160.00 231.00,200.00 231.00,200.00
             231.00,200.00 152.00,200.00 152.00,200.00
             152.00,200.00 141.00,251.00 141.00,251.00
             141.00,251.00 96.00,251.00 96.00,251.00
             96.00,251.00 102.58,224.00 102.58,224.00
             102.58,224.00 119.00,160.00 119.00,160.00
             119.00,160.00 240.00,160.00 240.00,160.00 Z
           M 296.00,160.00
           C 296.00,160.00 291.63,178.00 291.63,178.00
             291.63,178.00 284.00,210.00 284.00,210.00
             284.00,210.00 379.00,210.00 379.00,210.00
             379.00,210.00 370.00,251.00 370.00,251.00
             370.00,251.00 276.00,251.00 276.00,251.00
             264.19,250.86 249.75,249.53 243.27,238.00
             237.41,227.07 240.32,216.21 243.27,205.00
             243.27,205.00 254.00,160.00 254.00,160.00
             254.00,160.00 296.00,160.00 296.00,160.00 Z" />

</svg>
